<svg preserveAspectRatio="none" width="100%" height="100%" overflow="visible" style="display: block;" viewBox="0 0 20 20" fill="none" xmlns="http://www.w3.org/2000/svg">
<g id="uil:clock">
<path id="Vector" d="M12.5816 10.5283L10.8333 9.51916V5.83333C10.8333 5.61232 10.7455 5.40036 10.5892 5.24408C10.4329 5.0878 10.221 5 9.99996 5C9.77895 5 9.56699 5.0878 9.41071 5.24408C9.25443 5.40036 9.16663 5.61232 9.16663 5.83333V10C9.16663 10.1463 9.20514 10.29 9.27828 10.4167C9.35142 10.5433 9.45662 10.6485 9.5833 10.7217L11.7483 11.9717C11.8431 12.0272 11.948 12.0635 12.0569 12.0784C12.1657 12.0933 12.2765 12.0865 12.3828 12.0584C12.489 12.0303 12.5886 11.9815 12.6759 11.9147C12.7632 11.848 12.8365 11.7646 12.8914 11.6694C12.9464 11.5743 12.982 11.4692 12.9961 11.3602C13.0103 11.2512 13.0028 11.1405 12.974 11.0344C12.9452 10.9284 12.8957 10.829 12.8284 10.7422C12.761 10.6553 12.6772 10.5826 12.5816 10.5283ZM9.99996 1.66666C8.35179 1.66666 6.74062 2.15541 5.37021 3.07108C3.9998 3.98676 2.9317 5.28825 2.30097 6.81097C1.67024 8.33369 1.50521 10.0092 1.82675 11.6258C2.1483 13.2423 2.94197 14.7271 4.10741 15.8926C5.27284 17.058 6.7577 17.8517 8.37421 18.1732C9.99072 18.4948 11.6663 18.3297 13.189 17.699C14.7117 17.0683 16.0132 16.0002 16.9289 14.6297C17.8446 13.2593 18.3333 11.6482 18.3333 10C18.3311 7.79054 17.4524 5.6722 15.8901 4.10988C14.3278 2.54755 12.2094 1.66887 9.99996 1.66666ZM9.99996 16.6667C8.68142 16.6667 7.39249 16.2757 6.29616 15.5431C5.19983 14.8106 4.34535 13.7694 3.84077 12.5512C3.33618 11.333 3.20416 9.9926 3.46139 8.6994C3.71863 7.40619 4.35357 6.2183 5.28592 5.28595C6.21827 4.3536 7.40615 3.71866 8.69936 3.46143C9.99257 3.20419 11.333 3.33622 12.5512 3.8408C13.7694 4.34539 14.8105 5.19987 15.5431 6.2962C16.2756 7.39252 16.6666 8.68146 16.6666 10C16.6644 11.7674 15.9613 13.4618 14.7116 14.7116C13.4618 15.9614 11.7674 16.6645 9.99996 16.6667Z" fill="currentColor"/>
</g>
</svg>
