<svg preserveAspectRatio="none" width="100%" height="100%" overflow="visible" style="display: block;" viewBox="0 0 32 32" fill="none" xmlns="http://www.w3.org/2000/svg">
<g id="ic:sharp-facebook">
<g clip-path="url(#clip0_0_27)">
<path id="Vector" d="M32 16.0401C32 7.18597 24.832 9.53674e-07 16 9.53674e-07C7.16801 9.53674e-07 1.00136e-05 7.18597 1.00136e-05 16.0401C1.00136e-05 23.8035 5.50401 30.2677 12.8 31.7594V20.8521H9.60001V16.0401H12.8V12.0301C12.8 8.93434 15.312 6.41604 18.4 6.41604H22.4V11.2281H19.2C18.32 11.2281 17.6 11.9499 17.6 12.8321V16.0401H22.4V20.8521H17.6V32C25.68 31.198 32 24.3649 32 16.0401Z" fill="currentColor"/>
</g>
</g>
<defs>
<clipPath id="clip0_0_27">
<rect width="32" height="32" rx="16" fill="currentColor"/>
</clipPath>
</defs>
</svg>
