<svg preserveAspectRatio="none" width="100%" height="100%" overflow="visible" style="display: block;" viewBox="0 0 32 32" fill="none" xmlns="http://www.w3.org/2000/svg">
<g id="basil:instagram-outline">
<g clip-path="url(#clip0_0_11)">
<path id="Subtract" d="M16 0C20.2435 0 24.3129 1.68595 27.3135 4.68652C30.3141 7.68711 32 11.7565 32 16C32 20.2435 30.3141 24.3129 27.3135 27.3135C24.3129 30.3141 20.2435 32 16 32C11.7565 32 7.6871 30.3141 4.68652 27.3135C1.68594 24.3129 0 20.2435 0 16C0 11.7565 1.68594 7.68711 4.68652 4.68652C7.6871 1.68595 11.7565 0 16 0ZM21.7549 5.98438C17.9301 5.5609 14.0699 5.5609 10.2451 5.98438C8.04315 6.23021 6.26427 7.96175 6.00586 10.1709C5.55288 14.0437 5.55292 17.9563 6.00586 21.8291C6.26415 24.0384 8.04195 25.7708 10.2451 26.0166C14.0699 26.4392 17.9301 26.4392 21.7549 26.0166C23.9568 25.7706 25.7349 24.0383 25.9932 21.8291C26.4461 17.9563 26.4461 14.0437 25.9932 10.1709C25.7347 7.96189 23.9578 6.23033 21.7549 5.98438ZM10.4268 7.6123C14.1308 7.20225 17.8692 7.20225 21.5732 7.6123C23.0287 7.77634 24.1946 8.92238 24.3643 10.3623C24.8033 14.1082 24.8033 17.8928 24.3643 21.6387C24.2765 22.3433 23.9525 22.9974 23.4463 23.4961C22.94 23.9948 22.2802 24.3095 21.5732 24.3877C17.8692 24.7977 14.1308 24.7977 10.4268 24.3877C9.71967 24.3096 9.06012 23.9949 8.55371 23.4961C8.04739 22.9974 7.72355 22.3433 7.63574 21.6387C7.1967 17.8928 7.1967 14.1082 7.63574 10.3623C7.72351 9.65756 8.04733 9.00269 8.55371 8.50391C9.06006 8.00531 9.71985 7.69043 10.4268 7.6123ZM16 10.8105C14.6214 10.8105 13.2991 11.357 12.3242 12.3301C11.3494 13.3033 10.8009 14.6237 10.8008 16C10.8008 17.3765 11.3493 18.6966 12.3242 19.6699C13.2992 20.6432 14.6213 21.1904 16 21.1904C17.3787 21.1904 18.7009 20.6432 19.6758 19.6699C20.6507 18.6966 21.1982 17.3764 21.1982 16C21.1981 14.6237 20.6506 13.3033 19.6758 12.3301C18.7009 11.357 17.3786 10.8106 16 10.8105ZM16 12.4492C16.9432 12.4493 17.8476 12.8235 18.5146 13.4893C19.1816 14.1551 19.5565 15.0583 19.5566 16C19.5566 16.9418 19.1817 17.8458 18.5146 18.5117C17.8477 19.1774 16.9431 19.5517 16 19.5518C15.0567 19.5518 14.1514 19.1776 13.4844 18.5117C12.8173 17.8458 12.4424 16.9418 12.4424 16C12.4425 15.0584 12.8174 14.1551 13.4844 13.4893C14.1514 12.8233 15.0566 12.4492 16 12.4492ZM21.4717 9.44434C21.1816 9.44443 20.9034 9.55985 20.6982 9.76465C20.493 9.96953 20.378 10.2474 20.3779 10.5371C20.3779 10.8269 20.493 11.1047 20.6982 11.3096C20.9034 11.5144 21.1815 11.6298 21.4717 11.6299C21.762 11.6299 22.0408 11.5145 22.2461 11.3096C22.4512 11.1047 22.5664 10.8268 22.5664 10.5371C22.5664 10.2474 22.4513 9.96952 22.2461 9.76465C22.0408 9.55974 21.762 9.44434 21.4717 9.44434Z" fill="currentColor"/>
</g>
</g>
<defs>
<clipPath id="clip0_0_11">
<rect width="32" height="32" rx="16" fill="currentColor"/>
</clipPath>
</defs>
</svg>
