<svg preserveAspectRatio="none" width="100%" height="100%" overflow="visible" style="display: block;" viewBox="0 0 15 18.1783" fill="none" xmlns="http://www.w3.org/2000/svg">
<g id="Group">
<g id="Vector">
</g>
<path id="Vector_2" fill-rule="evenodd" clip-rule="evenodd" d="M7.5 0C9.48912 0 11.3968 0.790176 12.8033 2.1967C14.2098 3.60322 15 5.51088 15 7.5C15 10.0617 13.6033 12.1583 12.1317 13.6625C11.3964 14.4059 10.5941 15.0799 9.735 15.6758L9.38 15.9175L9.21333 16.0283L8.89917 16.2283L8.61917 16.3992L8.2725 16.6008C8.0372 16.7351 7.77094 16.8058 7.5 16.8058C7.22906 16.8058 6.9628 16.7351 6.7275 16.6008L6.38083 16.3992L5.9475 16.1325L5.7875 16.0283L5.44583 15.8008C4.51903 15.1738 3.65575 14.4576 2.86833 13.6625C1.39667 12.1575 0 10.0617 0 7.5C0 5.51088 0.790176 3.60322 2.1967 2.1967C3.60322 0.790176 5.51088 0 7.5 0ZM7.5 1.66667C5.9529 1.66667 4.46917 2.28125 3.37521 3.37521C2.28125 4.46917 1.66667 5.9529 1.66667 7.5C1.66667 9.435 2.72667 11.1333 4.05917 12.4967C4.63211 13.0767 5.25138 13.609 5.91083 14.0883L6.2925 14.36C6.41583 14.4461 6.53444 14.5261 6.64833 14.6L6.97333 14.8083L7.25917 14.9825L7.5 15.1233L7.87917 14.8992L8.185 14.7075C8.34778 14.6042 8.52194 14.4883 8.7075 14.36L9.08917 14.0883C9.74862 13.609 10.3679 13.0767 10.9408 12.4967C12.2733 11.1342 13.3333 9.435 13.3333 7.5C13.3333 5.9529 12.7188 4.46917 11.6248 3.37521C10.5308 2.28125 9.0471 1.66667 7.5 1.66667ZM7.5 4.16667C8.38405 4.16667 9.2319 4.51786 9.85702 5.14298C10.4821 5.7681 10.8333 6.61595 10.8333 7.5C10.8333 8.38406 10.4821 9.2319 9.85702 9.85702C9.2319 10.4821 8.38405 10.8333 7.5 10.8333C6.61594 10.8333 5.7681 10.4821 5.14298 9.85702C4.51786 9.2319 4.16667 8.38406 4.16667 7.5C4.16667 6.61595 4.51786 5.7681 5.14298 5.14298C5.7681 4.51786 6.61594 4.16667 7.5 4.16667ZM7.5 5.83333C7.05797 5.83333 6.63405 6.00893 6.32149 6.32149C6.00893 6.63405 5.83333 7.05797 5.83333 7.5C5.83333 7.94203 6.00893 8.36595 6.32149 8.67851C6.63405 8.99107 7.05797 9.16667 7.5 9.16667C7.94203 9.16667 8.36595 8.99107 8.67851 8.67851C8.99107 8.36595 9.16667 7.94203 9.16667 7.5C9.16667 7.05797 8.99107 6.63405 8.67851 6.32149C8.36595 6.00893 7.94203 5.83333 7.5 5.83333Z" fill="currentColor"/>
</g>
</svg>
