<svg preserveAspectRatio="none" width="100%" height="100%" overflow="visible" style="display: block;" viewBox="0 0 11.917 16.917" fill="none" xmlns="http://www.w3.org/2000/svg">
<g id="Group">
<path id="Vector (Stroke)" d="M10.417 3.25C10.417 2.28361 9.63334 1.50018 8.66699 1.5H3.25C2.2835 1.5 1.5 2.2835 1.5 3.25V13.667C1.50018 14.6333 2.28361 15.417 3.25 15.417H8.66699C9.63323 15.4168 10.4168 14.6332 10.417 13.667V3.25ZM11.917 13.667C11.9168 15.4617 10.4617 16.9168 8.66699 16.917H3.25C1.45518 16.917 0.00017574 15.4618 0 13.667V3.25C0 1.45507 1.45507 0 3.25 0H8.66699C10.4618 0.00017574 11.917 1.45518 11.917 3.25V13.667Z" fill="currentColor"/>
<path id="Vector (Stroke)_2" d="M6.79199 12.5C7.20606 12.5002 7.54199 12.8359 7.54199 13.25C7.54199 13.6641 7.20606 13.9998 6.79199 14H5.125C4.71079 14 4.375 13.6642 4.375 13.25C4.375 12.8358 4.71079 12.5 5.125 12.5H6.79199Z" fill="currentColor"/>
</g>
</svg>
