<svg preserveAspectRatio="none" width="100%" height="100%" overflow="visible" style="display: block;" viewBox="0 0 270.187 267.917" fill="none" xmlns="http://www.w3.org/2000/svg">
<path id="Star 1" d="M135.093 0L140.043 40.316L149.215 0.733841L149.887 41.342L163.181 2.92731L159.569 43.3827L176.84 6.55639L168.983 46.4157L190.041 11.5813L178.025 50.4079L202.64 17.947L186.597 55.3155L214.499 25.5838L194.605 61.0847L225.489 34.4079L201.961 67.6524L235.487 44.3227L208.585 74.9465L244.386 55.2196L214.403 82.8871L252.088 66.9792L219.352 91.3873L258.507 79.4726L223.378 100.354L263.575 92.563L226.437 109.689L267.235 106.107L228.495 119.289L269.447 119.956L229.529 129.051L270.187 133.958L229.529 138.866L269.447 147.961L228.495 148.627L267.235 161.81L226.437 158.228L263.575 175.354L223.378 167.563L258.507 188.444L219.352 176.529L252.088 200.938L214.403 185.03L244.386 212.697L208.585 192.97L235.487 223.594L201.961 200.264L225.489 233.509L194.605 206.832L214.499 242.333L186.597 212.601L202.64 249.97L178.025 217.509L190.041 256.335L168.983 221.501L176.84 261.36L159.569 224.534L163.181 264.989L149.887 226.575L149.215 267.183L140.043 227.601L135.093 267.917L130.144 227.601L120.972 267.183L120.3 226.575L107.006 264.989L110.618 224.534L93.3473 261.36L101.204 221.501L80.146 256.335L92.1616 217.509L67.5467 249.97L83.5894 212.601L55.6875 242.333L75.5815 206.832L44.6983 233.509L68.2256 200.264L34.6994 223.594L61.6023 192.97L25.8005 212.697L55.7842 185.03L18.0991 200.938L50.835 176.529L11.6794 188.444L46.809 167.563L6.61194 175.354L43.7503 158.228L2.95212 161.81L41.6923 148.627L0.740051 147.961L40.6576 138.866L0 133.958L40.6576 129.051L0.740051 119.956L41.6923 119.289L2.95212 106.107L43.7503 109.689L6.61194 92.563L46.809 100.354L11.6794 79.4726L50.835 91.3873L18.0991 66.9792L55.7842 82.8871L25.8005 55.2196L61.6023 74.9465L34.6994 44.3227L68.2256 67.6524L44.6983 34.4079L75.5815 61.0847L55.6875 25.5838L83.5894 55.3155L67.5467 17.947L92.1616 50.4079L80.146 11.5813L101.204 46.4157L93.3473 6.55639L110.618 43.3827L107.006 2.92731L120.3 41.342L120.972 0.733841L130.144 40.316L135.093 0Z" fill="currentColor" fill-opacity="0.5"/>
</svg>
