<svg preserveAspectRatio="none" width="100%" height="100%" overflow="visible" style="display: block;" viewBox="0 0 13.9713 14.0676" fill="none" xmlns="http://www.w3.org/2000/svg">
<path id="Star 2" d="M6.98565 0L7.76166 2.66983L9.41174 0.424191L9.22008 3.19619L11.5452 1.6456L10.409 4.18543L13.1287 3.51691L11.185 5.51822L13.9713 5.81241L11.4545 7.03382L13.9713 8.25523L11.185 8.54941L13.1287 10.5507L10.409 9.8822L11.5452 12.422L9.22008 10.8714L9.41174 13.6434L7.76166 11.3978L6.98565 14.0676L6.20964 11.3978L4.55956 13.6434L4.75122 10.8714L2.42609 12.422L3.56231 9.8822L0.842573 10.5507L2.7863 8.54941L0 8.25523L2.5168 7.03382L0 5.81241L2.7863 5.51822L0.842573 3.51691L3.56231 4.18543L2.42609 1.6456L4.75122 3.19619L4.55956 0.424191L6.20964 2.66983L6.98565 0Z" fill="currentColor"/>
</svg>
